<svg width="173" height="173" viewBox="0 0 173 173" fill="none" xmlns="http://www.w3.org/2000/svg">
<rect width="173" height="173" rx="86.5" fill="url(#paint0_linear)"/>
<g clip-path="url(#clip0)">
<path d="M86.0296 54.7145C81.64 57.9968 76.6649 61.717 73.9991 67.8719C69.3689 78.6101 83.4735 90.3232 84.0764 90.8166C84.2165 90.9312 84.3842 90.9884 84.5514 90.9884C84.7289 90.9884 84.9067 90.9239 85.0511 90.7953C85.331 90.5463 85.4105 90.1234 85.2424 89.779C85.1913 89.6744 80.1285 79.2193 80.3166 71.7188C80.3832 69.1064 83.822 66.1429 87.4624 63.0054C90.7967 60.1316 94.5763 56.8745 96.7877 53.0643C101.642 44.6774 96.2466 36.4304 96.1915 36.348C95.9772 36.028 95.5816 35.9122 95.2434 36.0698C94.9055 36.2284 94.7183 36.6169 94.7955 37.0009C94.8064 37.0556 95.8557 42.5092 92.9359 48.1279C91.7332 50.4498 89.0902 52.426 86.0296 54.7145Z" fill="white"/>
<path d="M104.524 58.4128C104.833 58.1649 104.924 57.7125 104.737 57.3515C104.55 56.9905 104.141 56.8313 103.779 56.9777C103.033 57.2791 85.5179 64.4571 85.5179 73.1299C85.5179 79.1084 87.92 82.2667 89.674 84.5731C90.362 85.4778 90.9559 86.2589 91.1517 86.9259C91.7027 88.8479 90.3972 92.3217 89.8482 93.4982C89.6899 93.8363 89.7675 94.2463 90.0367 94.4932C90.1822 94.6268 90.3638 94.6946 90.5457 94.6946C90.7004 94.6946 90.8559 94.6457 90.9902 94.5463C91.2914 94.3238 98.3504 89.0177 97.0844 82.6249C96.6127 80.195 95.4896 78.4196 94.4986 76.8529C92.9634 74.4255 91.8545 72.6722 93.5367 69.4339C95.5076 65.6566 104.433 58.4846 104.524 58.4128Z" fill="white"/>
<path d="M58.9312 94.8319C58.6309 95.7877 58.7727 96.7357 59.3407 97.5745C61.2394 100.377 67.9649 101.92 78.2791 101.92C78.2797 101.92 78.2801 101.92 78.2804 101.92C79.678 101.92 81.1534 101.891 82.6647 101.833C99.1553 101.206 105.272 95.7439 105.524 95.5117C105.799 95.2586 105.872 94.8372 105.702 94.4964C105.53 94.1557 105.162 93.9845 104.809 94.0876C99.0016 95.7735 88.1569 96.372 80.6348 96.372C72.2178 96.372 67.9313 95.7273 66.8819 95.2513C67.4203 94.4652 70.7416 93.0615 74.8573 92.2008C75.2506 92.1187 75.521 91.7325 75.482 91.3083C75.443 90.8842 75.1079 90.5607 74.707 90.5607C72.2945 90.5607 60.1958 90.7667 58.9312 94.8319Z" fill="white"/>
<path d="M114.112 89.2063C110.711 89.2063 107.485 91.0188 107.349 91.0955C107.035 91.2746 106.875 91.6581 106.962 92.0266C107.048 92.3945 107.359 92.6531 107.716 92.6535C107.788 92.6535 114.972 92.716 115.622 97.0794C116.198 100.844 108.826 106.943 105.936 108.975C105.624 109.195 105.503 109.619 105.648 109.986C105.771 110.298 106.057 110.493 106.365 110.493C106.419 110.493 106.474 110.488 106.528 110.475C107.214 110.319 123.303 106.55 121.602 96.591C120.564 90.4875 116.956 89.2063 114.112 89.2063Z" fill="white"/>
<path d="M103.078 107.757C103.134 107.438 103.009 107.113 102.76 106.927L98.902 104.054C98.7138 103.914 98.4762 103.87 98.2554 103.932C98.2151 103.943 94.1809 105.07 88.3239 105.762C85.9994 106.039 83.3958 106.185 80.794 106.185C74.9385 106.185 71.1099 105.454 70.5524 104.917C70.4785 104.767 70.5019 104.698 70.5151 104.66C70.6164 104.361 71.1593 104.005 71.5092 103.864C71.8957 103.712 72.1041 103.266 71.9839 102.847C71.864 102.427 71.4575 102.18 71.0563 102.283C67.1865 103.276 65.2943 104.664 65.432 106.409C65.6765 109.503 72.4179 111.092 78.117 111.511C78.9365 111.571 79.8229 111.601 80.7508 111.601C80.7514 111.601 80.7517 111.601 80.7523 111.601C90.2289 111.601 102.378 108.44 102.499 108.408C102.796 108.331 103.022 108.076 103.078 107.757Z" fill="white"/>
<path d="M73.9947 114.397C74.2869 114.195 74.4164 113.811 74.3127 113.458C74.2093 113.104 73.8982 112.872 73.5486 112.876C73.03 112.891 68.4741 113.11 68.1551 116.194C68.0586 117.115 68.3069 117.957 68.8934 118.696C70.5292 120.757 74.9448 121.982 82.3903 122.441C83.2711 122.497 84.1658 122.525 85.05 122.525C94.5157 122.525 100.891 119.374 101.158 119.24C101.417 119.11 101.587 118.84 101.602 118.536C101.618 118.232 101.475 117.944 101.231 117.785L96.3556 114.621C96.1863 114.511 95.9839 114.475 95.7909 114.517C95.7601 114.524 92.6646 115.206 87.9931 115.881C87.1092 116.008 86.0022 116.073 84.7033 116.073C80.0368 116.073 74.8463 115.263 73.8509 114.732C73.8364 114.633 73.8547 114.507 73.9947 114.397Z" fill="white"/>
<path d="M80.6384 132.039C102.32 132.02 113.957 127.92 116.199 125.341C116.993 124.428 117.078 123.564 117.011 123C116.844 121.611 115.655 120.761 115.52 120.668C115.194 120.446 114.757 120.504 114.504 120.815C114.25 121.127 114.244 121.581 114.499 121.893C114.635 122.08 114.714 122.393 114.315 122.818C113.418 123.708 104.379 126.409 89.3294 127.221C87.2678 127.335 85.1054 127.393 82.9028 127.393C69.4278 127.393 59.5661 125.431 58.2715 124.287C58.7705 123.525 62.2588 122.307 65.9684 121.618C66.3865 121.541 66.6689 121.122 66.6041 120.676C66.5393 120.231 66.1528 119.924 65.7304 119.982C65.6257 119.997 65.2706 120.02 64.8594 120.047C58.7385 120.444 51.6653 121.329 51.2962 124.682C51.1842 125.704 51.4697 126.631 52.1453 127.439C53.7983 129.413 58.5497 132.039 80.6376 132.039C80.638 132.039 80.638 132.039 80.6384 132.039Z" fill="white"/>
<path d="M120.458 126.067C120.151 125.917 119.789 125.993 119.56 126.255C119.529 126.292 116.269 129.916 106.467 132.044C102.715 132.843 95.6718 133.249 85.5329 133.249C75.3751 133.249 65.7094 132.824 65.6131 132.819C65.2093 132.798 64.864 133.11 64.8091 133.533C64.754 133.955 65.01 134.353 65.3999 134.452C65.5004 134.477 75.63 137 89.4801 137C96.1228 137 102.587 136.427 108.693 135.295C120.079 133.173 120.876 127.171 120.904 126.916C120.944 126.561 120.764 126.218 120.458 126.067Z" fill="white"/>
</g>
<defs>
<linearGradient id="paint0_linear" x1="0" y1="173" x2="173" y2="173" gradientUnits="userSpaceOnUse">
<stop stop-color="#0467F6"/>
<stop offset="1" stop-color="#0800A3"/>
</linearGradient>
<clipPath id="clip0">
<rect x="39" y="36" width="95" height="101" fill="white"/>
</clipPath>
</defs>
</svg>
